<?xml version="1.0" encoding="UTF-8"?>
<svg id="Layer_1" xmlns="http://www.w3.org/2000/svg" version="1.1" viewBox="0 0 230.8 90.5">
  <!-- Generator: Adobe Illustrator 29.0.1, SVG Export Plug-In . SVG Version: 2.1.0 Build 192)  -->
  <defs>
    <style>
      .st0 {
        fill: #4285f4;
      }

      .st1 {
        fill: #fff;
      }
    </style>
  </defs>
  <path class="st1" d="M71.7,51.7c0,11.8-9.3,20.6-20.6,20.6s-20.6-8.7-20.6-20.6,9.3-20.6,20.6-20.6,20.6,8.6,20.6,20.6ZM62.7,51.7c0-7.4-5.4-12.5-11.6-12.5s-11.6,5.1-11.6,12.5,5.4,12.5,11.6,12.5,11.6-5.1,11.6-12.5Z"/>
  <polygon class="st1" points="18.1 62.8 18.1 7.3 8.6 7.3 8.6 72.3 9.1 72.3 18.1 72.3 28.9 72.3 28.9 62.8 18.1 62.8"/>
  <path class="st1" d="M150.9,59.2l6.9,5.1c-2.5,3.3-8.3,9-17.9,8.5-11.9-.5-20.4-10.1-19.9-21.9.6-12.5,9.9-20.6,20.7-20.1,10.9.5,15.8,9.4,17.4,14.1l.9,2.4-28.6,10.4c2,4.3,5.2,6.6,9.9,6.8,4.7.2,8-2,10.6-5.4h0ZM129.3,50.7l19.1-7c-.9-2.7-3.9-4.6-7.6-4.8s-11.4,3.6-11.5,11.7Z"/>
  <path class="st1" d="M96.1,31.2c-11.4,0-20.6,8.6-20.6,20.6h0v35.7h8.9v-18.6c3.3,2.2,7.3,3.5,11.7,3.5,11.4,0,20.6-8.7,20.6-20.6s-9.3-20.6-20.6-20.6ZM96.1,64.2c-6.2,0-11.6-5.1-11.6-12.5s5.4-12.5,11.6-12.5,11.6,5.1,11.6,12.5-5.4,12.5-11.6,12.5Z"/>
  <circle class="st0" cx="220.9" cy="66.6" r="5.6"/>
  <path class="st1" d="M193.6,64.4v7.9h-31.6v-6.6l19.7-26.6h-18.4s0-7.9,0-7.9h29.4s0,6.6,0,6.6l-19.7,26.6h20.5Z"/>
  <path class="st1" d="M208.3,31.1v41.1h-9V31.1h9Z"/>
</svg>