<?xml version="1.0" encoding="UTF-8"?>
<svg id="Layer_1" data-name="Layer 1" xmlns="http://www.w3.org/2000/svg" viewBox="0 0 1386.73 287.68">
  <defs>
    <style>
      .cls-1 {
        fill: #f1f1f1;
        stroke-width: 0px;
      }
    </style>
  </defs>
  <g>
    <path class="cls-1" d="M667,219.18c-14.29,0-26.69-3.15-37.17-9.44-10.48-6.29-18.6-15.09-24.35-26.4-5.75-11.31-8.63-24.53-8.63-39.65s2.87-28.37,8.63-39.75c5.75-11.37,13.87-20.2,24.35-26.49,10.48-6.29,22.88-9.44,37.17-9.44s26.69,3.15,37.17,9.44c10.48,6.29,18.6,15.12,24.35,26.49,5.75,11.37,8.63,24.62,8.63,39.75s-2.87,28.34-8.63,39.65c-5.75,11.31-13.87,20.11-24.35,26.4-10.48,6.29-22.88,9.44-37.17,9.44ZM667.19,191.54c7.75,0,14.24-2.15,19.44-6.43,5.21-4.29,9.1-10.05,11.68-17.3,2.57-7.24,3.86-15.31,3.86-24.21s-1.29-17.08-3.86-24.35c-2.58-7.28-6.47-13.07-11.68-17.4-5.21-4.32-11.69-6.48-19.44-6.48s-14.53,2.16-19.77,6.48c-5.24,4.32-9.15,10.12-11.73,17.4-2.57,7.28-3.86,15.39-3.86,24.35s1.29,16.96,3.86,24.21c2.58,7.24,6.48,13.01,11.73,17.3,5.24,4.29,11.83,6.43,19.77,6.43Z"/>
    <path class="cls-1" d="M808.86,130.54v85.78h-34.5V69.92h32.98v24.88h1.72c3.36-8.2,8.75-14.71,16.15-19.54,7.4-4.83,16.57-7.24,27.5-7.24,10.11,0,18.92,2.16,26.45,6.48,7.53,4.32,13.38,10.58,17.54,18.78,4.16,8.2,6.21,18.14,6.15,29.83v93.21h-34.5v-87.88c0-9.79-2.53-17.44-7.58-22.97-5.05-5.53-12.02-8.29-20.92-8.29-6.04,0-11.39,1.32-16.06,3.96-4.67,2.64-8.33,6.43-10.96,11.39-2.64,4.96-3.96,10.96-3.96,18.01Z"/>
    <path class="cls-1" d="M963.41,49.14c-5.47,0-10.16-1.83-14.11-5.48-3.94-3.65-5.91-8.05-5.91-13.2s1.97-9.64,5.91-13.29c3.94-3.65,8.64-5.48,14.11-5.48s10.25,1.83,14.15,5.48c3.91,3.65,5.86,8.09,5.86,13.29s-1.95,9.55-5.86,13.2c-3.91,3.65-8.63,5.48-14.15,5.48ZM946.06,216.32V69.92h34.5v146.4h-34.5Z"/>
    <path class="cls-1" d="M1087.93,219.18c-14.61,0-27.15-3.21-37.6-9.63-10.46-6.42-18.49-15.3-24.11-26.64-5.63-11.34-8.44-24.41-8.44-39.22s2.86-28,8.58-39.41c5.72-11.4,13.8-20.3,24.26-26.69,10.45-6.39,22.83-9.58,37.12-9.58,11.88,0,22.41,2.18,31.6,6.53,9.18,4.35,16.5,10.48,21.97,18.39,5.47,7.91,8.58,17.14,9.34,27.69h-32.98c-1.33-7.05-4.49-12.95-9.48-17.68-4.99-4.73-11.64-7.1-19.97-7.1-7.05,0-13.25,1.89-18.59,5.67-5.33,3.78-9.48,9.2-12.44,16.25-2.96,7.05-4.43,15.51-4.43,25.35s1.46,18.54,4.38,25.69c2.92,7.15,7.04,12.64,12.34,16.49,5.31,3.84,11.55,5.77,18.73,5.77,5.09,0,9.64-.97,13.68-2.91,4.03-1.94,7.42-4.75,10.15-8.44,2.73-3.68,4.61-8.16,5.63-13.44h32.98c-.83,10.36-3.87,19.52-9.15,27.5-5.28,7.97-12.45,14.2-21.54,18.68-9.09,4.48-19.76,6.72-32.03,6.72Z"/>
    <path class="cls-1" d="M1229.22,219.27c-9.28,0-17.62-1.67-25.02-5-7.4-3.34-13.25-8.28-17.54-14.82-4.29-6.55-6.43-14.61-6.43-24.21,0-8.26,1.52-15.09,4.57-20.49,3.05-5.4,7.21-9.72,12.49-12.96,5.27-3.24,11.23-5.7,17.87-7.39,6.64-1.68,13.52-2.91,20.63-3.67,8.58-.89,15.54-1.7,20.87-2.43,5.34-.73,9.23-1.87,11.68-3.43,2.44-1.56,3.67-3.99,3.67-7.29v-.57c0-7.18-2.13-12.74-6.39-16.68-4.26-3.94-10.39-5.91-18.4-5.91-8.45,0-15.14,1.84-20.06,5.53-4.93,3.69-8.25,8.04-9.96,13.06l-32.21-4.57c2.54-8.89,6.73-16.35,12.58-22.35,5.84-6,12.99-10.52,21.44-13.53,8.45-3.02,17.79-4.53,28.02-4.53,7.05,0,14.07.83,21.07,2.48,6.98,1.65,13.37,4.37,19.15,8.15,5.78,3.78,10.44,8.91,13.96,15.39,3.53,6.48,5.29,14.58,5.29,24.31v97.98h-33.17v-20.11h-1.15c-2.1,4.07-5.04,7.86-8.81,11.39-3.78,3.53-8.52,6.35-14.2,8.48-5.69,2.13-12.34,3.19-19.97,3.19ZM1238.18,193.92c6.92,0,12.93-1.38,18.01-4.15,5.08-2.76,9.01-6.43,11.77-11.01,2.77-4.58,4.15-9.56,4.15-14.96v-17.25c-1.08.89-2.91,1.72-5.48,2.48-2.57.76-5.45,1.43-8.63,2-3.18.57-6.32,1.08-9.44,1.53-3.11.44-5.81.83-8.1,1.14-5.15.7-9.76,1.84-13.82,3.43-4.07,1.59-7.28,3.8-9.63,6.62-2.35,2.83-3.52,6.47-3.52,10.91,0,6.35,2.32,11.15,6.96,14.39,4.64,3.24,10.55,4.86,17.73,4.86Z"/>
    <path class="cls-1" d="M1366.71,49.14c-5.47,0-10.16-1.83-14.11-5.48-3.94-3.65-5.91-8.05-5.91-13.2s1.97-9.64,5.91-13.29c3.94-3.65,8.64-5.48,14.11-5.48s10.24,1.83,14.15,5.48c3.9,3.65,5.86,8.09,5.86,13.29s-1.96,9.55-5.86,13.2c-3.91,3.65-8.63,5.48-14.15,5.48ZM1349.36,216.32V69.92h34.5v146.4h-34.5Z"/>
  </g>
  <path class="cls-1" d="M19.47,127.19c-10.75,0-19.47-8.72-19.47-19.47s8.72-19.47,19.47-19.47c8.18,0,15.18,5.05,18.06,12.2l80.02,4.96c3.2-9.5,7.44-18.63,12.62-27.28l-55.97-3.51c-2.61,3.15-6.55,5.15-10.96,5.15-7.86,0-14.23-6.37-14.23-14.23s6.37-14.23,14.23-14.23c5.05,0,9.47,2.63,12,6.6l66.07,4.15c5.76-7.26,12.22-14.05,19.3-20.28l-15.1-1.01c-2.61,3.12-6.53,5.11-10.92,5.11-7.86,0-14.23-6.37-14.23-14.23s6.37-14.23,14.23-14.23c5.07,0,9.5,2.66,12.02,6.64l34.57,2.31c9.87-6.26,20.53-11.57,31.83-15.76,37.47-13.89,77.51-14.13,112.75-.66,35.67,13.63,62.17,39.62,74.61,73.18,1.8,4.85-.68,10.25-5.53,12.05-4.86,1.8-10.25-.68-12.05-5.53-10.54-28.42-33.17-50.51-63.72-62.18-30.99-11.84-66.34-11.58-99.54.73-41.76,15.48-73.67,47.95-85.36,86.85-.25.84-.61,1.61-1.06,2.31-1.24,3.12-4.28,5.29-7.77,5.29-.17,0-.35,0-.53-.02l-88.29-5.47c-3.32,5.99-9.7,10.04-17.03,10.04ZM125.14,209.11c.18.01.36.02.54.02,4.38,0,8.06-3.41,8.35-7.84.29-4.61-3.21-8.59-7.82-8.88l-64.32-4.07c-2.78-6.93-9.45-11.94-17.39-12.22-10.75-.38-19.77,8.03-20.14,18.78-.38,10.75,8.03,19.77,18.78,20.14,7.56.27,14.25-3.81,17.7-9.99l64.32,4.07ZM169.08,203.43c.28-7.85-5.87-14.44-13.72-14.72-7.85-.28-14.44,5.87-14.72,13.72-.28,7.85,5.87,14.44,13.72,14.72,7.85.28,14.44-5.87,14.72-13.72ZM125.57,231.15c-4.97,4.97-4.97,13.04,0,18.01,4.97,4.97,13.04,4.97,18.01,0,4.97-4.97,4.97-13.04,0-18.01-4.97-4.97-13.04-4.97-18.01,0ZM166.3,231.47c-3.36,3.36-3.36,8.81,0,12.17,3.36,3.36,8.81,3.36,12.17,0,3.36-3.36,3.36-8.81,0-12.17-3.36-3.36-8.81-3.36-12.17,0ZM406.82,44.25c10.75,0,19.47-8.72,19.47-19.47s-8.72-19.47-19.47-19.47-19.47,8.72-19.47,19.47,8.72,19.47,19.47,19.47ZM447.64,91.81c7.86,0,14.23-6.37,14.23-14.23s-6.37-14.23-14.23-14.23-14.23,6.37-14.23,14.23,6.37,14.23,14.23,14.23ZM406.82,73.35c0,4.75,3.85,8.61,8.61,8.61s8.61-3.85,8.61-8.61-3.85-8.61-8.61-8.61-8.61,3.85-8.61,8.61ZM516.8,105.19c-7.56-.27-14.25,3.81-17.7,9.99l-64.32-4.07c-4.62-.3-8.59,3.21-8.88,7.82-.29,4.61,3.21,8.59,7.82,8.88l64.32,4.07c2.78,6.93,9.44,11.94,17.39,12.22,10.75.38,19.77-8.03,20.14-18.78.38-10.75-8.03-19.77-18.78-20.14ZM419.27,117.12c.28-7.85-5.87-14.44-13.72-14.72-7.85-.28-14.44,5.87-14.72,13.72-.28,7.85,5.87,14.44,13.72,14.72,7.85.28,14.44-5.87,14.72-13.72ZM405.75,162.76l73.44,4.47c2.53,3.95,6.94,6.57,11.98,6.57,7.86,0,14.23-6.37,14.23-14.23,0-7.86-6.37-14.23-14.23-14.23-4.42,0-8.37,2.02-10.98,5.18l-73.43-4.47c-4.61-.28-8.58,3.23-8.86,7.85-.28,4.61,3.23,8.58,7.85,8.86ZM511.08,232.46c-.07,1.05-.33,2.04-.74,2.95-1.69,9.37-10.04,16.33-19.84,15.98-8.23-.29-15.08-5.65-17.67-12.97l-45.78-2.9c-25.56,32.69-67.4,52.16-112.39,52.16-36.27,0-70.42-12.44-96.17-35.02-6.36-5.58-12.02-11.61-16.95-18.02-17.23-19.88-34.64-50.53-27.51-96.03,11.24-71.67,82.37-77.29,82.37-77.29,2.48-.14,4.89-.21,7.25-.2.02,0,60.89-3.3,92.26,48.74.39.65.76,1.27,1.13,1.89-1.19-4.37-2.76-8.66-4.68-12.78-20.7-44.35-78-61.55-127.73-38.34-38.59,18.01-62.68,55.9-59.96,94.29.02.33.03.66.02.99.09.6.13,1.22.09,1.85-.29,4.43-3.97,7.83-8.34,7.83-.18,0-.36,0-.55-.02l-84.04-5.44c-2.58,3.59-6.79,5.94-11.55,5.94-7.86,0-14.23-6.37-14.23-14.23s6.37-14.23,14.23-14.23c4.67,0,8.8,2.26,11.4,5.74l74.03,4.79c.38-43.2,28.08-84.47,70.98-104.49,51.24-23.91,109.52-11.1,140.46,27.74,13.85,14.34,26.43,35,29.3,63.13,4.86,47.64-26.98,88.13-71.01,91.15-34.52,2.37-50.77-4.75-56.18-7.94-.36-.21-.74.26-.45.56,6.49,6.95,32.16,28.53,88.82,11.12.62-.19,1.15-.3,1.64-.36,18.45-9.16,33.02-24.19,40.17-42.85.5-1.3,1.26-2.41,2.18-3.32,1.65-2.09,4.27-3.36,7.13-3.17l43.45,2.9c2.61-3.29,6.63-5.41,11.16-5.41,7.86,0,14.23,6.37,14.23,14.23s-6.37,14.23-14.23,14.23c-4.93,0-9.27-2.51-11.82-6.31l-36.24-2.42c-16,36.49-55.02,60.72-98.55,60.72-32.74,0-62.06-13.57-81.54-34.84-8.48-8.5-17.93-20.18-26.07-35.62,10.96,46.6,58.59,81.77,115.52,81.77,39.89,0,76.78-17.32,98.69-46.33.26-.35.55-.66.84-.96,1.64-2.13,4.28-3.44,7.17-3.26l53.22,3.37c3.55-5.78,10.02-9.55,17.29-9.29,9.32.33,16.88,7.15,18.47,15.97.56,1.22.84,2.59.75,4.02ZM268.43,195.79c34.77,16.79,73.64,8.29,86.82-19,13.18-27.28-4.33-63.01-39.1-79.81-34.77-16.79-73.64-8.29-86.82,19-13.18,27.28,4.33,63.01,39.1,79.81Z"/>
</svg>